<?xml version="1.0" encoding="UTF-8" standalone="no"?>
<!-- Created with Inkscape (http://www.inkscape.org/) -->

<svg
   xmlns:dc="http://purl.org/dc/elements/1.1/"
   xmlns:cc="http://creativecommons.org/ns#"
   xmlns:rdf="http://www.w3.org/1999/02/22-rdf-syntax-ns#"
   xmlns:svg="http://www.w3.org/2000/svg"
   xmlns="http://www.w3.org/2000/svg"
   xmlns:sodipodi="http://sodipodi.sourceforge.net/DTD/sodipodi-0.dtd"
   xmlns:inkscape="http://www.inkscape.org/namespaces/inkscape"
   id="svg3004"
   version="1.1"
   inkscape:version="0.48.2 r9819"
   width="208.7439"
   height="37.555664"
   xml:space="preserve"
   sodipodi:docname="tunkio.svg"><metadata
     id="metadata3010"><rdf:RDF><cc:Work
         rdf:about=""><dc:format>image/svg+xml</dc:format><dc:type
           rdf:resource="http://purl.org/dc/dcmitype/StillImage" /><dc:title></dc:title></cc:Work></rdf:RDF></metadata><defs
     id="defs3008"><clipPath
       clipPathUnits="userSpaceOnUse"
       id="clipPath3020"><path
         d="m 0,283.46 283.46,0 L 283.46,0 0,0 0,283.46 z"
         id="path3022"
         inkscape:connector-curvature="0" /></clipPath></defs><sodipodi:namedview
     pagecolor="#ffffff"
     bordercolor="#666666"
     borderopacity="1"
     objecttolerance="10"
     gridtolerance="10"
     guidetolerance="10"
     inkscape:pageopacity="0"
     inkscape:pageshadow="2"
     inkscape:window-width="1565"
     inkscape:window-height="1156"
     id="namedview3006"
     showgrid="false"
     inkscape:zoom="3.1609397"
     inkscape:cx="127.27579"
     inkscape:cy="-90.175581"
     inkscape:window-x="1914"
     inkscape:window-y="175"
     inkscape:window-maximized="0"
     inkscape:current-layer="g3012"
     fit-margin-top="0"
     fit-margin-left="0"
     fit-margin-right="0"
     fit-margin-bottom="0" /><g
     id="g3012"
     inkscape:groupmode="layer"
     inkscape:label="tunkio"
     transform="matrix(1.25,0,0,-1.25,-70.575709,304.89374)"><g
       id="g3985"
       transform="matrix(1.6502815,0,0,1.6502815,-93.935857,-122.69389)"
       style="fill:#ffffff;fill-opacity:1"><g
         transform="translate(131.1753,220.939)"
         id="g3024"
         style="fill:#ffffff;fill-opacity:1"><path
           inkscape:connector-curvature="0"
           id="path3026"
           style="fill:#ffffff;fill-opacity:1;fill-rule:nonzero;stroke:none"
           d="M 0,0 C 0.204,-0.204 0.305,-0.452 0.305,-0.745 0.305,-1.039 0.204,-1.283 0,-1.478 -0.204,-1.674 -0.452,-1.771 -0.746,-1.771 l -4.96,0 0,-14.002 c 0,-0.31 -0.11,-0.571 -0.33,-0.783 -0.22,-0.211 -0.485,-0.317 -0.794,-0.317 -0.31,0 -0.57,0.106 -0.782,0.317 -0.212,0.212 -0.318,0.473 -0.318,0.783 l 0,14.002 -4.985,0 c -0.293,0 -0.537,0.097 -0.733,0.293 -0.195,0.195 -0.293,0.439 -0.293,0.733 0,0.293 0.098,0.541 0.293,0.745 0.196,0.204 0.44,0.306 0.733,0.306 l 12.169,0 C -0.452,0.306 -0.204,0.204 0,0" /></g><g
         transform="translate(135.7329,205.9966)"
         id="g3028"
         style="fill:#ffffff;fill-opacity:1"><path
           inkscape:connector-curvature="0"
           id="path3030"
           style="fill:#ffffff;fill-opacity:1;fill-rule:nonzero;stroke:none"
           d="m 0,0 c 1.433,0 2.769,0.781 4.007,2.346 l 0,7.331 c 0,0.309 0.11,0.57 0.33,0.781 0.22,0.212 0.485,0.318 0.794,0.318 0.31,0 0.571,-0.106 0.783,-0.318 0.211,-0.211 0.317,-0.472 0.317,-0.781 l 0,-10.484 c 0,-0.326 -0.106,-0.594 -0.317,-0.806 -0.212,-0.211 -0.473,-0.318 -0.783,-0.318 -0.309,0 -0.574,0.107 -0.794,0.318 -0.22,0.212 -0.33,0.48 -0.33,0.806 l 0,1.002 C 3.355,-0.489 2.793,-0.97 2.321,-1.246 1.393,-1.784 0.509,-2.053 -0.33,-2.053 c -0.839,0 -1.527,0.126 -2.065,0.379 -0.538,0.252 -0.994,0.599 -1.368,1.038 -0.766,0.896 -1.149,2.02 -1.149,3.372 l 0,6.941 c 0,0.309 0.11,0.57 0.33,0.781 0.22,0.212 0.484,0.318 0.794,0.318 0.309,0 0.57,-0.106 0.782,-0.318 0.212,-0.211 0.318,-0.472 0.318,-0.781 l 0,-6.697 c 0,-0.927 0.208,-1.657 0.623,-2.186 C -1.649,0.265 -0.961,0 0,0" /></g><g
         transform="translate(150.834,214.8423)"
         id="g3032"
         style="fill:#ffffff;fill-opacity:1"><path
           inkscape:connector-curvature="0"
           id="path3034"
           style="fill:#ffffff;fill-opacity:1;fill-rule:nonzero;stroke:none"
           d="m 0,0 c -1.434,0 -2.77,-0.782 -4.008,-2.346 l 0,-7.331 c 0,-0.309 -0.109,-0.57 -0.33,-0.782 -0.22,-0.211 -0.484,-0.317 -0.794,-0.317 -0.309,0 -0.571,0.106 -0.782,0.317 -0.212,0.212 -0.317,0.473 -0.317,0.782 l 0,10.483 c 0,0.326 0.105,0.595 0.317,0.807 0.211,0.211 0.473,0.318 0.782,0.318 0.31,0 0.574,-0.107 0.794,-0.318 0.221,-0.212 0.33,-0.481 0.33,-0.807 l 0,-1.001 c 0.652,0.684 1.213,1.164 1.686,1.441 0.929,0.538 1.812,0.807 2.652,0.807 0.838,0 1.527,-0.127 2.065,-0.379 0.537,-0.253 0.993,-0.599 1.368,-1.039 0.765,-0.896 1.148,-2.02 1.148,-3.372 l 0,-6.94 c 0,-0.309 -0.11,-0.57 -0.329,-0.782 -0.221,-0.211 -0.485,-0.317 -0.795,-0.317 -0.309,0 -0.57,0.106 -0.781,0.317 -0.213,0.212 -0.318,0.473 -0.318,0.782 l 0,6.696 c 0,0.928 -0.208,1.657 -0.624,2.187 C 1.648,-0.265 0.961,0 0,0" /></g><g
         transform="translate(168.5986,205.8013)"
         id="g3036"
         style="fill:#ffffff;fill-opacity:1"><path
           inkscape:connector-curvature="0"
           id="path3038"
           style="fill:#ffffff;fill-opacity:1;fill-rule:nonzero;stroke:none"
           d="m 0,0 c 0.163,-0.212 0.245,-0.457 0.245,-0.733 0,-0.278 -0.106,-0.514 -0.318,-0.709 -0.212,-0.196 -0.448,-0.293 -0.708,-0.293 -0.392,0 -0.726,0.154 -1.002,0.464 l -4.203,5.718 -2.126,-1.93 0,-3.153 c 0,-0.309 -0.111,-0.57 -0.33,-0.782 -0.22,-0.211 -0.485,-0.317 -0.794,-0.317 -0.31,0 -0.571,0.106 -0.783,0.317 -0.211,0.212 -0.317,0.473 -0.317,0.782 l 0,15.86 c 0,0.309 0.106,0.574 0.317,0.794 0.212,0.219 0.473,0.33 0.783,0.33 0.309,0 0.574,-0.111 0.794,-0.33 0.219,-0.22 0.33,-0.485 0.33,-0.794 l 0,-9.995 5.815,5.376 c 0.261,0.211 0.554,0.317 0.88,0.317 0.326,0 0.563,-0.118 0.709,-0.354 0.146,-0.236 0.22,-0.436 0.22,-0.598 0,-0.359 -0.139,-0.677 -0.415,-0.953 L -4.423,5.864 0,0 z" /></g><g
         transform="translate(172.7158,206.5952)"
         id="g3040"
         style="fill:#ffffff;fill-opacity:1"><path
           inkscape:connector-curvature="0"
           id="path3042"
           style="fill:#ffffff;fill-opacity:1;fill-rule:nonzero;stroke:none"
           d="m 0,0 c 0.27,-0.269 0.403,-0.591 0.403,-0.966 l 0,-0.146 C 0.403,-1.487 0.27,-1.809 0,-2.077 -0.269,-2.346 -0.59,-2.48 -0.965,-2.48 l -0.244,0 c -0.375,0 -0.696,0.134 -0.966,0.403 -0.268,0.268 -0.402,0.59 -0.402,0.965 l 0,0.146 c 0,0.375 0.134,0.697 0.402,0.966 0.27,0.269 0.591,0.403 0.966,0.403 l 0.244,0 C -0.59,0.403 -0.269,0.269 0,0" /></g><g
         transform="translate(175.9297,216.4551)"
         id="g3044"
         style="fill:#ffffff;fill-opacity:1"><path
           inkscape:connector-curvature="0"
           id="path3046"
           style="fill:#ffffff;fill-opacity:1;fill-rule:nonzero;stroke:none"
           d="M 0,0 C 0.212,0.211 0.477,0.318 0.794,0.318 1.112,0.318 1.377,0.211 1.589,0 1.8,-0.212 1.906,-0.481 1.906,-0.807 l 0,-10.483 c 0,-0.309 -0.106,-0.57 -0.317,-0.782 -0.212,-0.211 -0.477,-0.317 -0.795,-0.317 -0.317,0 -0.582,0.106 -0.794,0.317 -0.212,0.212 -0.317,0.473 -0.317,0.782 l 0,10.483 C -0.317,-0.481 -0.212,-0.212 0,0 M 2.126,3.983 C 2.126,3.641 2.004,3.348 1.76,3.104 1.516,2.859 1.222,2.737 0.88,2.737 l -0.147,0 c -0.341,0 -0.635,0.122 -0.879,0.367 -0.245,0.244 -0.367,0.537 -0.367,0.879 l 0,0.098 c 0,0.342 0.122,0.635 0.367,0.879 0.244,0.245 0.538,0.367 0.879,0.367 l 0.147,0 C 1.222,5.327 1.516,5.205 1.76,4.96 2.004,4.716 2.126,4.423 2.126,4.081 l 0,-0.098 z" /></g><g
         transform="translate(183.3457,206.9858)"
         id="g3048"
         style="fill:#ffffff;fill-opacity:1"><path
           inkscape:connector-curvature="0"
           id="path3050"
           style="fill:#ffffff;fill-opacity:1;fill-rule:nonzero;stroke:none"
           d="m 0,0 c 0.383,-0.351 0.814,-0.607 1.295,-0.77 0.48,-0.163 0.953,-0.244 1.417,-0.244 0.465,0 0.937,0.081 1.418,0.244 0.48,0.163 0.916,0.416 1.307,0.758 0.879,0.798 1.32,1.954 1.32,3.47 0,1.466 -0.441,2.606 -1.32,3.421 C 4.704,7.547 3.8,7.881 2.725,7.881 0.965,7.881 -0.257,7.09 -0.94,5.511 -1.186,4.94 -1.308,4.252 -1.308,3.446 -1.308,2.639 -1.186,1.951 -0.94,1.381 -0.696,0.811 -0.383,0.351 0,0 M 2.725,9.909 C 4.614,9.909 6.129,9.314 7.27,8.125 8.41,6.919 8.98,5.355 8.98,3.434 8.98,1.511 8.41,-0.053 7.27,-1.259 6.129,-2.447 4.614,-3.042 2.725,-3.042 c -1.907,0 -3.421,0.595 -4.545,1.783 -1.141,1.19 -1.711,2.753 -1.711,4.693 0,1.938 0.57,3.502 1.711,4.691 1.124,1.189 2.638,1.784 4.545,1.784" /></g><g
         transform="translate(91.1338,204.188)"
         id="g3052"
         style="fill:#ffffff;fill-opacity:1"><path
           inkscape:connector-curvature="0"
           id="path3054"
           style="fill:#ffffff;fill-opacity:1;fill-rule:nonzero;stroke:none"
           d="m 0,0 c 0,5.383 0.612,9.665 3.278,9.665 2.667,0 2.336,-2.709 4.971,-2.709 3.061,0 4.772,6.955 7.833,6.955 2.636,0 5.221,-7.648 5.221,-13.911 L 0,0 z" /></g></g></g></svg>